# xmcd
#
# Track frame offsets:
#	150
#	24703
#	41384
#	59594
#	72988
#	89049
#	106100
#	122709
#	134700
#	153932
#	169703
#
# Disc length: 2495 seconds
#
# Revision: 1
# Processed by: cddbd v1.5.2PL0 Copyright (c) Steve Scherf et al.
# Submitted via: audiograbber 1.83.01
#
DISCID=9909bd0b
DTITLE=Various Artist - Street June 09 CD1
DYEAR=2009
DGENRE=R&B
TTITLE0=Keri Hilson Ft Kanye West and Ne-Yo - Knock You Down (Album Version)
TTITLE1=Speech Debelle - Go Then, Bye (Radio Edit)
TTITLE2=Alborosie - Mama She Don't Like You
TTITLE3=LS and The Bandidos - Got To Love Me Baby
TTITLE4=Peven Everett - Gorgeous Girl
TTITLE5=Funky DL - Back Around The Old School (Film Remix)
TTITLE6=Butchered Beats - Type Of Guy
TTITLE7=Khryskay - I C U (Radio Edit)
TTITLE8=Sonikz Ft Mr Miller - Fly So High
TTITLE9=Ed James - Get 'Em Off (JD Beatz 2 Radio Edit)
TTITLE10=Double C Ft Blizz and Dvocalz - Back It Up (Original Club Mix)
EXTD=
EXTT0=
EXTT1=
EXTT2=
EXTT3=
EXTT4=
EXTT5=
EXTT6=
EXTT7=
EXTT8=
EXTT9=
EXTT10=
PLAYORDER=
